<svg xmlns="http://www.w3.org/2000/svg" xmlns:xlink="http://www.w3.org/1999/xlink" width="500" zoomAndPan="magnify" viewBox="0 0 375 374.999991" height="500" preserveAspectRatio="xMidYMid meet" version="1.0"><defs><g/><clipPath id="461a079945"><rect x="0" width="188" y="0" height="137"/></clipPath><clipPath id="4c7eed5d86"><rect x="0" width="112" y="0" height="137"/></clipPath><clipPath id="7af15cb504"><path d="M 128 248.722656 L 237 248.722656 L 237 260 L 128 260 Z M 128 248.722656 " clip-rule="nonzero"/></clipPath><clipPath id="117fc95b84"><path d="M 231 248.722656 L 244 248.722656 L 244 260 L 231 260 Z M 231 248.722656 " clip-rule="nonzero"/></clipPath><clipPath id="6a8eac336c"><path d="M 238 248.722656 L 250 248.722656 L 250 260 L 238 260 Z M 238 248.722656 " clip-rule="nonzero"/></clipPath><clipPath id="33f877b567"><path d="M 244 248.722656 L 255 248.722656 L 255 260 L 244 260 Z M 244 248.722656 " clip-rule="nonzero"/></clipPath><clipPath id="d79313929d"><path d="M 250 248.722656 L 259 248.722656 L 259 260 L 250 260 Z M 250 248.722656 " clip-rule="nonzero"/></clipPath><clipPath id="ba8965eb23"><path d="M 254 248.722656 L 261.601562 248.722656 L 261.601562 260 L 254 260 Z M 254 248.722656 " clip-rule="nonzero"/></clipPath><clipPath id="84de0104e2"><path d="M 123.601562 261 L 231 261 L 231 267.472656 L 123.601562 267.472656 Z M 123.601562 261 " clip-rule="nonzero"/></clipPath><clipPath id="9af1f155a4"><path d="M 231 261 L 237 261 L 237 267.472656 L 231 267.472656 Z M 231 261 " clip-rule="nonzero"/></clipPath><clipPath id="a1d7c3c6cd"><path d="M 238 261 L 243 261 L 243 267.472656 L 238 267.472656 Z M 238 261 " clip-rule="nonzero"/></clipPath><clipPath id="b1e5d80f2c"><path d="M 244 261 L 249 261 L 249 267.472656 L 244 267.472656 Z M 244 261 " clip-rule="nonzero"/></clipPath><clipPath id="1bdde9a279"><path d="M 250 261 L 252 261 L 252 267.472656 L 250 267.472656 Z M 250 261 " clip-rule="nonzero"/></clipPath><clipPath id="acc9928025"><path d="M 254 261 L 256 261 L 256 267.472656 L 254 267.472656 Z M 254 261 " clip-rule="nonzero"/></clipPath><clipPath id="41a4056744"><path d="M 106.796875 115 L 285 115 L 285 166 L 106.796875 166 Z M 106.796875 115 " clip-rule="nonzero"/></clipPath><clipPath id="3fe0b5dabe"><path d="M 138 147 L 313.046875 147 L 313.046875 171 L 138 171 Z M 138 147 " clip-rule="nonzero"/></clipPath><clipPath id="7af723bf73"><rect x="0" width="82" y="0" height="12"/></clipPath></defs><g transform="matrix(1, 0, 0, 1, 53, 133)"><g clip-path="url(#461a079945)"><g fill="#2b2b2b" fill-opacity="1"><g transform="translate(0.91322, 108.2415)"><g><path d="M 55.859375 -49.625 L 35.96875 -49.625 L 41.6875 -65.390625 L 85.1875 -65.390625 L 67.296875 -16.078125 C 66.828125 -14.671875 66.003906 -13.3125 64.828125 -12 C 63.660156 -10.695312 62.3125 -9.609375 60.78125 -8.734375 L 46.609375 -1.5 C 45.734375 -0.96875 44.828125 -0.582031 43.890625 -0.34375 C 42.953125 -0.113281 42.015625 0 41.078125 0 L 5.328125 0 L 11.046875 -15.765625 L 38.46875 -15.765625 C 39.875 -15.765625 41.242188 -16.25 42.578125 -17.21875 C 43.921875 -18.195312 44.828125 -19.351562 45.296875 -20.6875 Z M 55.859375 -49.625 "/></g></g></g><g fill="#2b2b2b" fill-opacity="1"><g transform="translate(69.116703, 108.2415)"><g><path d="M 53.140625 0 L 45 0 L 43 -37.875 L 38.375 -23.3125 L 29.9375 0 L 6.328125 0 L 30.03125 -65.390625 L 55.75 -65.390625 L 57.453125 -23.109375 L 89.8125 -65.390625 L 115.515625 -65.390625 L 91.8125 0 L 68.203125 0 L 76.640625 -23.3125 L 82.671875 -37.875 Z M 53.140625 0 "/></g></g></g></g></g><g transform="matrix(1, 0, 0, 1, 220, 133)"><g clip-path="url(#4c7eed5d86)"><g fill="#ff3131" fill-opacity="1"><g transform="translate(0.191684, 108.2415)"><g><path d="M 29.9375 0 L 6.328125 0 L 30.03125 -65.390625 L 51.53125 -65.390625 L 72.828125 -26.625 L 86.890625 -65.390625 L 110.5 -65.390625 L 89.8125 -8.34375 C 89.132812 -6.59375 87.992188 -5.316406 86.390625 -4.515625 L 79.0625 -0.796875 C 78.1875 -0.265625 77.25 0 76.25 0 L 65.296875 0 L 43.390625 -37.171875 Z M 29.9375 0 "/></g></g></g></g></g><g clip-path="url(#7af15cb504)"><path fill="#2b2b2b" d="M 134.453125 248.726562 L 128.074219 259.78125 L 230.109375 259.78125 L 236.488281 248.726562 Z M 134.453125 248.726562 " fill-opacity="1" fill-rule="nonzero"/></g><g clip-path="url(#117fc95b84)"><path fill="#2b2b2b" d="M 237.597656 248.726562 L 231.214844 259.777344 L 236.742188 259.777344 L 243.121094 248.726562 Z M 237.597656 248.726562 " fill-opacity="1" fill-rule="nonzero"/></g><g clip-path="url(#6a8eac336c)"><path fill="#2b2b2b" d="M 244.597656 248.726562 L 238.214844 259.777344 L 242.636719 259.777344 L 249.019531 248.726562 Z M 244.597656 248.726562 " fill-opacity="1" fill-rule="nonzero"/></g><g clip-path="url(#33f877b567)"><path fill="#2b2b2b" d="M 250.859375 248.726562 L 244.480469 259.777344 L 248.015625 259.777344 L 254.398438 248.726562 Z M 250.859375 248.726562 " fill-opacity="1" fill-rule="nonzero"/></g><g clip-path="url(#d79313929d)"><path fill="#2b2b2b" d="M 256.609375 248.726562 L 250.226562 259.777344 L 251.996094 259.777344 L 258.378906 248.726562 Z M 256.609375 248.726562 " fill-opacity="1" fill-rule="nonzero"/></g><g clip-path="url(#ba8965eb23)"><path fill="#2b2b2b" d="M 260.957031 248.726562 L 254.574219 259.777344 L 255.460938 259.777344 L 261.839844 248.726562 Z M 260.957031 248.726562 " fill-opacity="1" fill-rule="nonzero"/></g><g clip-path="url(#84de0104e2)"><path fill="#2b2b2b" d="M 123.601562 267.515625 L 230.109375 267.515625 L 230.109375 261.992188 L 126.792969 261.992188 Z M 123.601562 267.515625 " fill-opacity="1" fill-rule="nonzero"/></g><g clip-path="url(#9af1f155a4)"><path fill="#2b2b2b" d="M 231.214844 261.988281 L 236.742188 261.988281 L 236.742188 267.515625 L 231.214844 267.515625 Z M 231.214844 261.988281 " fill-opacity="1" fill-rule="nonzero"/></g><g clip-path="url(#a1d7c3c6cd)"><path fill="#2b2b2b" d="M 238.214844 261.988281 L 242.636719 261.988281 L 242.636719 267.515625 L 238.214844 267.515625 Z M 238.214844 261.988281 " fill-opacity="1" fill-rule="nonzero"/></g><g clip-path="url(#b1e5d80f2c)"><path fill="#2b2b2b" d="M 244.480469 261.988281 L 248.015625 261.988281 L 248.015625 267.515625 L 244.480469 267.515625 Z M 244.480469 261.988281 " fill-opacity="1" fill-rule="nonzero"/></g><g clip-path="url(#1bdde9a279)"><path fill="#2b2b2b" d="M 250.226562 261.988281 L 251.996094 261.988281 L 251.996094 267.515625 L 250.226562 267.515625 Z M 250.226562 261.988281 " fill-opacity="1" fill-rule="nonzero"/></g><g clip-path="url(#acc9928025)"><path fill="#2b2b2b" d="M 254.574219 261.988281 L 255.460938 261.988281 L 255.460938 267.515625 L 254.574219 267.515625 Z M 254.574219 261.988281 " fill-opacity="1" fill-rule="nonzero"/></g><path fill="#2b2b2b" d="M 213.292969 110.296875 C 182.398438 110.152344 155.824219 115.058594 151.992188 115.542969 C 145.859375 116.316406 143.84375 120.535156 143.84375 120.535156 L 131.96875 146.578125 C 134.066406 146.324219 136.773438 145.996094 139.984375 145.609375 C 140.707031 96.179688 265.414062 115.269531 269.589844 118.054688 C 251.921875 112.289062 231.832031 110.382812 213.292969 110.296875 Z M 213.292969 110.296875 " fill-opacity="1" fill-rule="nonzero"/><g clip-path="url(#41a4056744)"><path fill="#2b2b2b" d="M 185.589844 117.179688 C 185.589844 117.179688 217.949219 111.625 269.144531 120.800781 C 268.664062 120.320312 279.046875 129.011719 284.601562 146.882812 C 284.359375 146.644531 146.707031 134.808594 106.859375 165.960938 C 107.585938 164.996094 124.007812 147.851562 173.269531 143.503906 C 222.535156 139.15625 281.222656 150.507812 274.21875 133.84375 C 267.214844 117.179688 229.058594 117.179688 185.589844 117.179688 Z M 185.589844 117.179688 " fill-opacity="1" fill-rule="nonzero"/></g><path fill="#2b2b2b" d="M 132.699219 146.339844 L 128.535156 150.203125 C 128.535156 150.203125 125.757812 146.640625 116.277344 147.003906 C 106.800781 147.367188 111.992188 136.863281 117.605469 136.742188 C 123.21875 136.621094 128.65625 135.652344 128.230469 138.550781 C 127.808594 141.449219 127.75 145.253906 126.902344 145.617188 C 126.058594 145.976562 126.964844 137.34375 119.960938 138.671875 C 112.957031 140 114.347656 142.839844 116.097656 143.503906 C 117.847656 144.167969 120.382812 142.476562 122.496094 144.953125 C 124.609375 147.425781 130.828125 148.757812 132.699219 146.339844 Z M 132.699219 146.339844 " fill-opacity="1" fill-rule="nonzero"/><path fill="#2b2b2b" d="M 284.171875 146.765625 L 288.335938 150.628906 C 288.335938 150.628906 291.113281 147.066406 300.589844 147.429688 C 310.070312 147.792969 304.878906 137.285156 299.261719 137.167969 C 293.648438 137.046875 288.214844 136.078125 288.636719 138.976562 C 289.058594 141.875 289.121094 145.679688 289.964844 146.042969 C 290.8125 146.402344 289.90625 137.769531 296.910156 139.097656 C 303.914062 140.425781 302.523438 143.265625 300.773438 143.929688 C 299.023438 144.59375 296.484375 142.902344 294.371094 145.378906 C 292.257812 147.851562 286.042969 149.179688 284.171875 146.765625 Z M 284.171875 146.765625 " fill-opacity="1" fill-rule="nonzero"/><g clip-path="url(#3fe0b5dabe)"><path fill="#2b2b2b" d="M 216.203125 147.367188 C 192.746094 147.445312 167.085938 150.015625 138.769531 158.597656 L 138.816406 158.589844 C 182.363281 148.160156 232.6875 148.375 268.820312 150.988281 C 268.699219 150.996094 268.644531 150.992188 268.523438 151 C 263.679688 151.246094 260.746094 151.960938 254.300781 152.535156 C 247.859375 153.109375 241.382812 153.847656 236.398438 154.742188 C 233.90625 155.191406 231.789062 155.679688 230.21875 156.21875 C 229.4375 156.484375 228.789062 156.765625 228.292969 157.070312 C 227.800781 157.371094 227.433594 157.699219 227.285156 158.125 C 227.132812 158.5625 227.328125 159.03125 227.695312 159.375 C 273.496094 187.496094 304.730469 134.15625 312.265625 170.335938 C 312.617188 170.3125 312.96875 170.289062 313.304688 170.28125 C 311.765625 159.425781 306.171875 156.75 303.980469 153.097656 C 303.300781 151.957031 302.394531 151.425781 301.464844 151.339844 C 300.539062 151.257812 299.621094 151.589844 298.808594 152.039062 C 292.816406 156.527344 285.515625 159.339844 278.53125 160.660156 C 271.265625 161.96875 263.042969 162.503906 255.363281 162.496094 C 218.425781 155.839844 261.902344 152.882812 280.4375 151.089844 C 260.921875 149.699219 239.660156 147.285156 216.203125 147.367188 Z M 216.203125 147.367188 " fill-opacity="1" fill-rule="nonzero"/></g><g transform="matrix(1, 0, 0, 1, 142, 247)"><g clip-path="url(#7af723bf73)"><g fill="#ffffff" fill-opacity="1"><g transform="translate(1.014896, 8.922423)"><g><path d="M 6.71875 0 L 4.84375 0 L 5.1875 -0.96875 L 3.375 -0.96875 L 2.921875 -1.421875 L 2.234375 0 L 0.34375 0 L 2.25 -3.921875 C 2.3125 -4.046875 2.382812 -4.160156 2.46875 -4.265625 C 2.550781 -4.367188 2.65625 -4.457031 2.78125 -4.53125 L 3.90625 -5.09375 C 4.039062 -5.164062 4.1875 -5.203125 4.34375 -5.203125 L 6.734375 -5.203125 C 6.804688 -5.203125 6.875 -5.191406 6.9375 -5.171875 C 7 -5.160156 7.050781 -5.132812 7.09375 -5.09375 L 7.953125 -4.28125 C 8.035156 -4.207031 8.082031 -4.117188 8.09375 -4.015625 C 8.113281 -3.910156 8.101562 -3.800781 8.0625 -3.6875 Z M 4.015625 -3.5625 L 3.28125 -2.125 L 5.609375 -2.125 L 6.125 -3.5625 C 6.164062 -3.664062 6.160156 -3.753906 6.109375 -3.828125 C 6.054688 -3.910156 5.972656 -3.953125 5.859375 -3.953125 L 4.5625 -3.953125 C 4.457031 -3.953125 4.351562 -3.910156 4.25 -3.828125 C 4.144531 -3.753906 4.066406 -3.664062 4.015625 -3.5625 Z M 4.015625 -3.5625 "/></g></g></g><g fill="#ffffff" fill-opacity="1"><g transform="translate(10.078918, 8.922423)"><g><path d="M 7.015625 -5.203125 L 8.890625 -5.203125 L 7.546875 -1.515625 C 7.492188 -1.378906 7.421875 -1.265625 7.328125 -1.171875 C 7.234375 -1.085938 7.140625 -1.015625 7.046875 -0.953125 L 5.5625 -0.125 C 5.488281 -0.0820312 5.414062 -0.0507812 5.34375 -0.03125 C 5.269531 -0.0078125 5.195312 0 5.125 0 L 1.5 0 C 1.226562 0 1.03125 -0.09375 0.90625 -0.28125 C 0.78125 -0.476562 0.765625 -0.71875 0.859375 -1 L 2.390625 -5.203125 L 4.265625 -5.203125 L 2.96875 -1.640625 C 2.9375 -1.535156 2.941406 -1.441406 2.984375 -1.359375 C 3.035156 -1.285156 3.117188 -1.25 3.234375 -1.25 L 5.1875 -1.25 C 5.289062 -1.25 5.394531 -1.285156 5.5 -1.359375 C 5.601562 -1.441406 5.675781 -1.535156 5.71875 -1.640625 Z M 7.015625 -5.203125 "/></g></g></g><g fill="#ffffff" fill-opacity="1"><g transform="translate(19.422938, 8.922423)"><g><path d="M 1.765625 -3.953125 L 2.21875 -5.203125 L 8.40625 -5.203125 L 7.953125 -3.953125 L 5.796875 -3.953125 L 4.609375 -0.65625 C 4.554688 -0.519531 4.46875 -0.421875 4.34375 -0.359375 L 3.765625 -0.0625 C 3.691406 -0.0195312 3.613281 0 3.53125 0 L 2.484375 0 L 3.921875 -3.953125 Z M 1.765625 -3.953125 "/></g></g></g><g fill="#ffffff" fill-opacity="1"><g transform="translate(28.118959, 8.922423)"><g><path d="M 2.09375 0 C 2.007812 0 1.9375 -0.0078125 1.875 -0.03125 C 1.820312 -0.0507812 1.773438 -0.0820312 1.734375 -0.125 L 1.03125 -0.703125 C 0.957031 -0.765625 0.910156 -0.847656 0.890625 -0.953125 C 0.878906 -1.054688 0.894531 -1.164062 0.9375 -1.28125 L 1.8125 -3.703125 C 2 -4.210938 2.3125 -4.585938 2.75 -4.828125 C 3.1875 -5.078125 3.703125 -5.203125 4.296875 -5.203125 L 6.875 -5.203125 C 7.039062 -5.203125 7.160156 -5.164062 7.234375 -5.09375 L 7.953125 -4.53125 C 8.023438 -4.457031 8.066406 -4.367188 8.078125 -4.265625 C 8.097656 -4.160156 8.085938 -4.046875 8.046875 -3.921875 L 7.15625 -1.515625 C 6.96875 -0.992188 6.65625 -0.609375 6.21875 -0.359375 C 5.78125 -0.117188 5.257812 0 4.65625 0 Z M 2.9375 -1.640625 C 2.90625 -1.535156 2.914062 -1.441406 2.96875 -1.359375 C 3.019531 -1.285156 3.097656 -1.25 3.203125 -1.25 L 4.796875 -1.25 C 4.898438 -1.25 5.003906 -1.285156 5.109375 -1.359375 C 5.210938 -1.441406 5.285156 -1.535156 5.328125 -1.640625 L 6.03125 -3.5625 C 6.070312 -3.675781 6.066406 -3.769531 6.015625 -3.84375 C 5.960938 -3.914062 5.878906 -3.953125 5.765625 -3.953125 L 4.171875 -3.953125 C 4.066406 -3.953125 3.960938 -3.914062 3.859375 -3.84375 C 3.753906 -3.769531 3.679688 -3.675781 3.640625 -3.5625 Z M 2.9375 -1.640625 "/></g></g></g><g fill="#ffffff" fill-opacity="1"><g transform="translate(37.046985, 8.922423)"><g><path d="M 3.40625 -1.5625 L 3.28125 -2.5 L 2.390625 0 L 0.5 0 L 2.390625 -5.203125 L 6.421875 -5.203125 C 7.023438 -5.203125 7.457031 -5.078125 7.71875 -4.828125 C 7.976562 -4.585938 8.015625 -4.210938 7.828125 -3.703125 L 7.515625 -2.84375 C 7.484375 -2.738281 7.421875 -2.632812 7.328125 -2.53125 C 7.234375 -2.425781 7.128906 -2.335938 7.015625 -2.265625 L 5.875 -1.6875 C 5.800781 -1.644531 5.726562 -1.613281 5.65625 -1.59375 C 5.582031 -1.570312 5.507812 -1.5625 5.4375 -1.5625 Z M 3.8125 -3.953125 L 3.40625 -2.828125 L 5.21875 -2.828125 C 5.332031 -2.828125 5.441406 -2.863281 5.546875 -2.9375 C 5.660156 -3.019531 5.734375 -3.113281 5.765625 -3.21875 L 5.890625 -3.5625 C 5.929688 -3.675781 5.925781 -3.769531 5.875 -3.84375 C 5.820312 -3.914062 5.742188 -3.953125 5.640625 -3.953125 Z M 3.8125 -3.953125 "/></g></g></g><g fill="#ffffff" fill-opacity="1"><g transform="translate(45.663, 8.922423)"><g><path d="M 6.71875 0 L 4.84375 0 L 5.1875 -0.96875 L 3.375 -0.96875 L 2.921875 -1.421875 L 2.234375 0 L 0.34375 0 L 2.25 -3.921875 C 2.3125 -4.046875 2.382812 -4.160156 2.46875 -4.265625 C 2.550781 -4.367188 2.65625 -4.457031 2.78125 -4.53125 L 3.90625 -5.09375 C 4.039062 -5.164062 4.1875 -5.203125 4.34375 -5.203125 L 6.734375 -5.203125 C 6.804688 -5.203125 6.875 -5.191406 6.9375 -5.171875 C 7 -5.160156 7.050781 -5.132812 7.09375 -5.09375 L 7.953125 -4.28125 C 8.035156 -4.207031 8.082031 -4.117188 8.09375 -4.015625 C 8.113281 -3.910156 8.101562 -3.800781 8.0625 -3.6875 Z M 4.015625 -3.5625 L 3.28125 -2.125 L 5.609375 -2.125 L 6.125 -3.5625 C 6.164062 -3.664062 6.160156 -3.753906 6.109375 -3.828125 C 6.054688 -3.910156 5.972656 -3.953125 5.859375 -3.953125 L 4.5625 -3.953125 C 4.457031 -3.953125 4.351562 -3.910156 4.25 -3.828125 C 4.144531 -3.753906 4.066406 -3.664062 4.015625 -3.5625 Z M 4.015625 -3.5625 "/></g></g></g><g fill="#ffffff" fill-opacity="1"><g transform="translate(54.727022, 8.922423)"><g><path d="M 2.390625 0 L 0.5 0 L 2.390625 -5.203125 L 6.421875 -5.203125 C 7.023438 -5.203125 7.457031 -5.078125 7.71875 -4.828125 C 7.976562 -4.585938 8.015625 -4.210938 7.828125 -3.703125 L 7.546875 -2.9375 C 7.523438 -2.882812 7.5 -2.832031 7.46875 -2.78125 C 7.4375 -2.738281 7.390625 -2.6875 7.328125 -2.625 L 6.6875 -2.15625 C 6.488281 -2.007812 6.304688 -1.9375 6.140625 -1.9375 L 5.625 -1.9375 L 6.703125 -0.046875 L 6.6875 0 L 4.375 0 L 3.28125 -2.46875 Z M 3.8125 -3.953125 L 3.390625 -2.78125 L 5.203125 -2.78125 C 5.316406 -2.78125 5.425781 -2.816406 5.53125 -2.890625 C 5.632812 -2.972656 5.707031 -3.066406 5.75 -3.171875 L 5.875 -3.5625 C 5.914062 -3.675781 5.910156 -3.769531 5.859375 -3.84375 C 5.816406 -3.914062 5.738281 -3.953125 5.625 -3.953125 Z M 3.8125 -3.953125 "/></g></g></g><g fill="#ffffff" fill-opacity="1"><g transform="translate(63.367044, 8.922423)"><g><path d="M 1.765625 -3.953125 L 2.21875 -5.203125 L 8.40625 -5.203125 L 7.953125 -3.953125 L 5.796875 -3.953125 L 4.609375 -0.65625 C 4.554688 -0.519531 4.46875 -0.421875 4.34375 -0.359375 L 3.765625 -0.0625 C 3.691406 -0.0195312 3.613281 0 3.53125 0 L 2.484375 0 L 3.921875 -3.953125 Z M 1.765625 -3.953125 "/></g></g></g><g fill="#ffffff" fill-opacity="1"><g transform="translate(72.063065, 8.922423)"><g><path d="M 7.453125 -3.234375 L 6.828125 -1.515625 C 6.785156 -1.398438 6.71875 -1.296875 6.625 -1.203125 C 6.539062 -1.109375 6.441406 -1.023438 6.328125 -0.953125 L 4.84375 -0.125 C 4.78125 -0.0820312 4.710938 -0.0507812 4.640625 -0.03125 C 4.566406 -0.0078125 4.492188 0 4.421875 0 L 0.46875 0 L 0.921875 -1.25 L 4.46875 -1.25 C 4.570312 -1.25 4.675781 -1.285156 4.78125 -1.359375 C 4.882812 -1.441406 4.953125 -1.535156 4.984375 -1.640625 L 5.125 -1.984375 L 1.1875 -1.984375 L 1.8125 -3.6875 C 1.90625 -3.9375 2.082031 -4.132812 2.34375 -4.28125 L 3.796875 -5.09375 C 3.867188 -5.132812 3.941406 -5.160156 4.015625 -5.171875 C 4.085938 -5.191406 4.160156 -5.203125 4.234375 -5.203125 L 8.171875 -5.203125 L 7.71875 -3.953125 L 4.1875 -3.953125 C 4.070312 -3.953125 3.960938 -3.914062 3.859375 -3.84375 C 3.753906 -3.769531 3.679688 -3.675781 3.640625 -3.5625 L 3.53125 -3.234375 Z M 7.453125 -3.234375 "/></g></g></g></g></g></svg>