<?xml version="1.0" encoding="utf-8"?>
<!-- Generator: Adobe Illustrator 26.5.0, SVG Export Plug-In . SVG Version: 6.00 Build 0)  -->
<svg version="1.1" id="Layer_1" xmlns="http://www.w3.org/2000/svg" xmlns:xlink="http://www.w3.org/1999/xlink" x="0px" y="0px"
	 viewBox="0 0 512 512" style="enable-background:new 0 0 512 512;" xml:space="preserve">
<style type="text/css">
	.st0{fill:#EA0033;}
</style>
<g id="XMLID_22_">
	<path id="XMLID_24_" class="st0" d="M231.44,42.44C239.8,28.3,247.48,13.88,256.23,0c21.42,37.73,43.38,75.32,65.08,112.91
		c1.75,1.89-0.13,4.04-0.94,5.79c-20.34,34.9-40.56,69.93-60.77,105.09c-0.81,1.89-2.69,3.5-2.69,5.66
		c1.89,1.08,4.04,0.67,6.06,0.67c41.9-0.13,83.94,0,125.84,0c22.1,38.4,44.46,76.66,66.29,115.06c-44.19,0-88.39,0-132.58,0
		c-21.02-36.92-42.58-73.43-63.46-110.48c-0.94-1.48-1.62-3.23-3.23-4.04c-8.35,13.61-15.9,27.62-23.98,41.23
		c-14.01,24.39-28.29,48.64-42.17,73.16c-44.19,0-88.39,0-132.58,0c21.96-38.4,44.19-76.8,66.29-115.06
		c44.33,0.13,88.52-0.13,132.85,0.13c-21.29-37.32-42.85-74.51-64.4-111.7c-0.67-1.48-2.43-3.37-1.08-5.12
		C203.96,89.74,217.97,66.16,231.44,42.44z"/>
	<path id="XMLID_28_" d="M80.14,378.34c4.31,0,8.49,0,12.8,0c2.96,8.62,6.47,17.11,9.16,25.87c2.96-8.76,6.47-17.25,9.7-25.87
		c4.04,0,8.22,0,12.26,0c0,18.32,0,36.78,0,55.11c-3.1-0.27-7.14,1.75-9.43-0.67c-0.13-13.34-0.67-26.68,0.4-39.88
		c-4.85,10.24-8.62,21.02-12.93,31.39c-4.04-10.37-8.49-20.61-12.26-31.26c-0.13,13.61,0,27.22-0.13,40.96
		c-3.1-0.4-6.87,0.81-9.43-1.08C80,414.72,80.27,396.53,80.14,378.34z"/>
	<path id="XMLID_29_" d="M149.39,378.34c10.91,0,21.96,0,32.88,0c0,2.69,0,5.39,0,8.22c-3.77,0-7.55,0-11.32,0
		c-0.13,15.76,0,31.53-0.13,47.29c-3.37,0-6.74,0-10.11,0c-0.13-15.63,0-31.39-0.13-47.02c-3.77,0-7.55,0-11.18,0
		C149.39,384,149.39,381.17,149.39,378.34L149.39,378.34z"/>
	<path id="XMLID_30_" d="M186.04,385.88c4.99-9.97,20.48-11.86,27.62-3.23c3.23,3.23,3.91,7.95,4.58,12.26c-3.23,0-6.47,0-9.7,0
		c-0.67-2.16-0.67-4.45-2.02-6.2c-1.75-1.35-3.77-2.02-5.66-2.96c-2.83,1.62-6.87,3.23-6.74,7.28c1.21,4.45,5.93,6.2,9.57,8.35
		c6.2,3.23,13.34,7.14,15.09,14.42c1.89,7.95-4.04,16.03-11.72,18.05c-6.47,1.21-14.01,0.81-19-4.04
		c-4.18-3.64-4.72-9.43-5.52-14.42c3.23,0,6.47,0,9.7,0c1.08,3.23,1.35,7.55,5.12,8.89c3.23,1.75,7.01,0.27,10.37-0.54
		c0.67-2.96,2.16-6.47-0.27-9.16c-5.12-5.52-13.34-6.6-18.59-12.13C184.29,398.41,183.61,391.27,186.04,385.88z"/>
	<path id="XMLID_31_" d="M224.71,378.34c3.23,0,6.47,0,9.84,0c0.13,13.34-0.13,26.68,0.13,40.15c0.27,6.6,9.57,8.89,13.88,4.58
		c2.56-2.02,2.29-5.52,2.43-8.49c0-12.13,0-24.12,0-36.24c3.23,0,6.6,0,9.84,0c0,12.4,0,24.93,0,37.32c0,3.5-0.13,7.01-1.89,10.11
		c-6.2,11.86-26.41,11.59-32.34-0.4c-1.89-3.77-1.89-8.08-1.89-12.13C224.71,401.65,224.57,390.06,224.71,378.34L224.71,378.34z"/>
	<path id="XMLID_34_" d="M269.98,378.34c7.81,0.13,15.63-0.4,23.44,0.13c8.35,0.94,14.28,10.37,11.32,18.32
		c-1.08,3.91-4.85,5.79-8.22,7.41c5.79,2.02,10.64,7.55,10.37,13.88c0.4,4.72-1.75,9.43-5.39,12.26c-3.37,2.69-7.81,2.96-11.99,3.23
		c-6.47,0.13-13.07,0-19.54,0.13C269.84,415.26,269.98,396.8,269.98,378.34 M280.22,386.96c0,12.8,0,25.46,0,38.26
		c3.77-0.13,7.81,0.4,11.59-0.54c5.66-1.48,7.01-10.11,2.29-13.47c-2.96-2.43-6.87-2.16-10.37-2.56c0-2.69,0-5.39,0-8.08
		c2.29-0.27,4.72-0.27,7.01-1.08c3.77-1.08,5.52-6.2,3.23-9.3C291.13,385.21,284.66,387.5,280.22,386.96z"/>
	<path id="XMLID_35_" d="M312.96,378.34c3.5,0,7.01,0,10.51,0c-0.13,18.46,0.13,37.05-0.13,55.51c-3.5,0-6.87,0-10.37,0
		C312.96,415.39,312.96,396.8,312.96,378.34z"/>
	<path id="XMLID_36_" d="M334.11,384.54c5.52-7.95,18.05-9.84,25.2-3.23c4.18,3.37,5.39,8.76,5.79,13.74c-3.1,0-6.2,0-9.3,0.13
		c-1.08-3.23-1.75-7.81-5.93-8.22c-4.72-1.35-10.37,2.96-7.95,8.08c5.93,7.41,17.25,8.49,22.23,16.98
		c4.85,7.81-0.13,18.73-8.49,21.56c-7.14,2.02-16.17,1.62-21.42-4.31c-3.64-3.64-4.04-8.89-4.18-13.61c3.1,0,6.2,0,9.3,0
		c0.94,3.91,2.16,9.16,7.01,9.57c4.99,1.75,11.32-2.56,9.3-8.22c-3.77-7.28-13.07-7.95-18.86-13.2
		C331.15,399.36,329.93,390.46,334.11,384.54z"/>
	<path id="XMLID_37_" d="M371.43,378.34c3.37,0,6.74,0,10.24-0.13c0,7.28,0,14.55,0,21.83c7.01,0.13,13.88,0.13,20.88,0
		c0-7.28,0-14.55,0-21.83c3.23,0,6.33,0,9.57,0c0,18.46,0.13,37.05-0.13,55.51c-3.1,0-6.33,0-9.43,0
		c-0.13-8.35,0.13-16.57-0.27-24.93c-0.81,8.35-0.27,16.71-0.67,24.93c-0.13-8.35,0-16.57,0.27-24.93
		c-6.47,0.13-12.93-0.27-19.4,0.13c-1.21,1.48-0.81,3.64-0.94,5.39c0,6.47,0.13,12.93,0,19.27c-3.37,0-6.74,0-10.11,0
		C371.43,415.26,371.43,396.8,371.43,378.34z"/>
	<path id="XMLID_39_" d="M421.55,378.34c3.5,0,6.87,0,10.37,0c0,18.46,0,37.05,0,55.51c-3.37,0-6.87,0-10.24,0
		C421.42,415.39,421.55,396.8,421.55,378.34z"/>
	<path id="XMLID_40_" d="M133.36,378.34c3.64,0,7.28,0,10.91,0c0,18.46,0,37.05,0,55.51c-3.37,0-6.6,0.13-9.97-0.13
		c-1.21-1.48-0.81-3.5-0.94-5.25C133.49,411.75,133.36,395.05,133.36,378.34z"/>
	<path id="XMLID_46_" d="M200.32,455c7.14-0.94,14.82,2.16,19,8.22c5.25,7.55,5.93,17.25,4.99,26.14c-0.94,7.14-3.64,14.69-9.7,19
		c-9.16,6.47-23.85,3.77-29.1-6.33c-5.52-10.11-5.52-22.5-1.75-33.28C186.31,461.6,192.77,455.81,200.32,455 M200.32,464.7
		c-4.58,1.35-6.87,6.06-7.81,10.51c-1.75,7.41-1.48,15.76,2.29,22.5c2.16,4.04,7.14,5.66,11.32,4.58c5.39-2.56,7.95-8.62,8.08-14.28
		c0.27-6.6,0.4-13.88-3.5-19.54C208.4,465.11,204.09,463.49,200.32,464.7L200.32,464.7z"/>
	<path id="XMLID_53_" d="M276.31,455c6.47-0.67,13.34,1.89,17.52,7.14c5.12,6.06,6.47,14.42,6.47,22.1
		c-0.27,8.08-2.29,16.84-8.22,22.64c-6.06,5.79-15.63,6.47-22.9,2.83c-7.14-3.77-10.91-11.86-11.86-19.67
		c-0.67-7.81-0.54-16.17,3.1-23.44C263.11,460.39,269.3,455.54,276.31,455 M276.04,464.57c-5.25,1.48-7.68,7.14-8.62,12.13
		c-0.81,6.33-0.94,13.07,1.62,19c1.48,3.64,4.85,7.01,9.03,7.01c5.12,0.54,9.03-4.04,10.37-8.49c2.29-7.68,2.16-16.44-1.08-23.85
		C285.47,466.05,280.49,463.36,276.04,464.57z"/>
	<path id="XMLID_54_" d="M347.99,464.3c4.58-9.97,19.27-12.67,27.08-4.99c3.91,3.23,4.99,8.35,5.39,13.2c-3.23,0-6.47,0-9.7,0
		c-0.81-2.69-0.94-6.33-3.91-7.68c-3.23-1.21-7.68-0.81-9.57,2.43c-1.08,2.29-0.94,5.52,1.35,7.14c6.74,5.52,16.3,7.55,21.02,15.49
		c4.58,7.95-0.54,18.59-9.16,21.15c-7.41,1.89-16.71,1.35-21.69-5.12c-3.1-3.37-3.23-8.22-3.64-12.53c3.23,0,6.6,0.13,9.84,0.27
		c0.67,2.43,0.67,5.52,2.69,7.28c4.31,4.18,14.55,1.89,13.34-5.39c-2.29-7.14-10.91-8.22-16.3-12.13
		C348.12,479.79,344.76,471.17,347.99,464.3z"/>
	<path id="XMLID_55_" d="M130.66,455.81c4.18,0,8.49,0,12.67,0c3.23,8.62,6.6,17.25,9.3,26.14c2.96-8.76,6.33-17.52,9.7-26.14
		c4.04,0,8.22,0,12.26,0c0,18.46,0,36.92,0,55.38c-3.23,0-6.47,0-9.7,0c-0.13-13.47,0.13-26.95-0.13-40.42
		c-3.64,10.51-8.22,20.75-12.26,31.26c-4.04-10.51-8.49-20.88-12.13-31.53c-0.13,13.61,0,27.08,0,40.69c-3.23,0-6.47,0-9.7,0
		C130.66,492.73,130.66,474.27,130.66,455.81z"/>
	<path id="XMLID_56_" d="M224.44,455.81c10.91,0,21.96,0,32.88,0c0,2.83,0,5.66,0,8.49c-3.77,0-7.55,0-11.45,0
		c0,15.63,0,31.26,0,46.89c-3.37,0-6.74,0-10.11,0c0-15.63,0-31.26,0-46.89c-3.77,0-7.55,0-11.32,0
		C224.44,461.47,224.44,458.64,224.44,455.81z"/>
	<path id="XMLID_57_" d="M306.36,511.05c-0.13-18.46,0-36.92,0-55.38c8.76,0.67,18.05-1.48,26.41,1.62
		c11.32,4.18,13.07,22.77,2.02,28.16c-0.54,0.4-1.75,1.08-2.29,1.35c4.58,8.08,9.57,16.03,14.01,24.12c-3.91,0-7.95,0-11.86,0.13
		c-4.99-9.7-10.11-19.54-14.82-29.37c2.96-0.67,6.47-0.27,9.03-2.29c4.31-3.37,4.31-11.18-0.67-13.88
		c-3.64-1.89-7.81-1.35-11.72-1.62c-0.13,15.63,0,31.39,0,47.02C313.09,511.05,309.72,511.05,306.36,511.05L306.36,511.05z"/>
</g>
</svg>
