<?xml version="1.0" encoding="utf-8"?>
<!-- Generator: Adobe Illustrator 27.0.0, SVG Export Plug-In . SVG Version: 6.00 Build 0)  -->
<svg version="1.1" id="Ñëîé_1" xmlns="http://www.w3.org/2000/svg" xmlns:xlink="http://www.w3.org/1999/xlink" x="0px" y="0px"
	 viewBox="0 0 512 512" style="enable-background:new 0 0 512 512;" xml:space="preserve">
<style type="text/css">
	.st0{fill:#E31B31;}
	.st1{fill:#005D9B;}
</style>
<g id="XMLID_15_">
	<path id="XMLID_17_" class="st0" d="M369.33,242.58c0,0-21.17,6.09-62.41,31.41c-36.95,22.69-51.48,37.92-51.48,37.92l-113.75-78.6
		c0,0,47.88-35.15,87.87-8.3l53.69,36.81l6.5-4.29L141.7,153.74c0,0,21.31-6.09,62.41-31.41c36.95-22.69,51.34-37.92,51.34-37.92
		l113.89,78.6c0,0-47.88,35.15-87.87,8.3l-53.69-36.81l-6.5,4.29L369.33,242.58"/>
	<polyline id="XMLID_21_" class="st1" points="281.32,349.82 194.7,349.82 194.7,369.06 236.49,369.06 193.18,409.46 193.18,425.65 
		281.18,425.65 281.18,406.28 237.32,406.28 281.32,366.01 281.32,349.82 	"/>
	<path id="XMLID_22_" class="st1" d="M143.64,427.59c34.59,0,43.59-8.86,43.59-28.37v-49.4h-27.54v46.5
		c0,7.75-6.64,12.45-16.05,12.45c-9.69,0-16.05-4.7-16.05-12.59v-46.36h-27.54v49.4C100.19,418.73,109.04,427.59,143.64,427.59"/>
	<path id="XMLID_23_" class="st1" d="M331.55,427.59c34.59,0,43.59-8.86,43.59-28.37v-49.4h-27.54v46.5
		c0,7.75-6.64,12.45-16.05,12.45c-9.69,0-16.05-4.7-16.05-12.59v-46.36h-27.54v49.4C287.97,418.73,296.96,427.59,331.55,427.59"/>
	<polyline id="XMLID_24_" class="st1" points="512,349.82 483.36,349.82 483.36,425.65 512,425.65 512,349.82 	"/>
	<polyline id="XMLID_25_" class="st1" points="479.07,349.82 441.43,349.82 410.98,375.97 410.98,349.82 382.34,349.82 
		382.34,425.65 410.98,425.65 410.98,398.81 439.21,425.65 477.68,425.65 435.75,386.77 479.07,349.82 	"/>
	<path id="XMLID_26_" class="st1" d="M32.52,370.72c0-5.81,8.72-6.09,11.62-6.09c3.04,0,9.55,1.11,14.11,8.58h32.38
		c0-14.25-13.56-25.6-46.22-25.6c-36.39,0-42.62,15.91-42.62,25.18c0,16.88,13.15,21.86,41.65,24.91c2.49,0.28,17.3-0.42,17.3,6.64
		c0,5.26-8.3,5.67-11.35,5.67c-3.04,0-8.72-0.55-13.56-8.86H0c0,16.61,11.21,26.29,49.12,26.29c34.73,0,44-14.25,44-25.05
		c0-10.52-7.2-21.17-36.95-24.91C43.87,375.84,32.52,375.14,32.52,370.72"/>
</g>
</svg>
