<?xml version="1.0" encoding="utf-8"?>
<!-- Generator: Adobe Illustrator 27.0.0, SVG Export Plug-In . SVG Version: 6.00 Build 0)  -->
<svg version="1.1" id="Layer_1" xmlns="http://www.w3.org/2000/svg" xmlns:xlink="http://www.w3.org/1999/xlink" x="0px" y="0px"
	 viewBox="0 0 512 512" style="enable-background:new 0 0 512 512;" xml:space="preserve">
<style type="text/css">
	.st0{fill:#808184;}
	.st1{fill:url(#SVGID_1_);}
	.st2{fill:url(#XMLID_00000103947232174407356300000016481175696584727425_);}
	.st3{fill:url(#XMLID_00000100375457311131850610000004327246221484117165_);}
	.st4{fill:url(#SVGID_00000016045456744017519540000012761601519672005809_);}
	.st5{fill:#404041;}
	.st6{fill:url(#SVGID_00000036943663103750091370000016888478759744160441_);}
	.st7{fill:#FFFFFF;}
	.st8{fill:url(#SVGID_00000088134896650115951310000003332791539822215045_);}
	.st9{fill:url(#SVGID_00000003100485962518234770000006198919411470562189_);}
	.st10{fill:url(#SVGID_00000048478534128367406340000004861177993153337500_);}
	.st11{fill:url(#XMLID_00000115476377649423866430000001938591006819477407_);}
	.st12{fill:url(#XMLID_00000003791800690816016550000010219615228199173799_);}
	.st13{fill:url(#XMLID_00000080207146244235354170000015082173681295482783_);}
	.st14{fill:url(#XMLID_00000153675174497981741010000007103701555295630738_);}
	.st15{fill:#FF0000;}
</style>
<g id="XMLID_1_">
	<g id="XMLID_2_">
		<path id="XMLID_3_" class="st0" d="M32.33,191.05c0,79.87,100.35,144.82,223.67,144.82s223.67-64.95,223.67-144.82
			S379.32,46.23,256,46.23S32.33,111.18,32.33,191.05z M34.52,191.05c0-78.56,99.33-142.63,221.48-142.63
			s221.48,63.93,221.48,142.63c0,78.56-99.33,142.63-221.48,142.63S34.52,269.75,34.52,191.05z"/>
		<path id="XMLID_4_" class="st0" d="M234.79,73c-51.2,3.22-89.67,17.55-95.82,35.55c-0.59,1.76-0.88,3.51-0.88,5.27
			c0,2.78,0.73,5.56,2.34,8.34c7.02,12.43,29.11,22.67,60.85,28.38l1.02,0.15l0.15-1.17c5.41-34.38,17.41-61.59,32.91-74.46
			l2.63-2.19L234.79,73z M142.34,120.98c-1.32-2.34-2.05-4.83-2.05-7.17c0-1.46,0.29-2.93,0.73-4.39l0,0
			c5.71-16.53,42.86-30.28,90.84-33.79c-14.63,13.75-25.89,39.79-31.16,72.56C170.57,142.63,148.77,132.53,142.34,120.98z
			 M138.97,108.54L138.97,108.54L138.97,108.54z"/>
		<path id="XMLID_5_" class="st0" d="M227.33,152.58l-0.15,1.17l1.17,0.15c9.07,0.73,18.29,1.02,27.65,1.02s18.72-0.29,27.65-1.02
			l1.17-0.15l-0.15-1.17c-4.97-28.82-15.95-46.67-28.67-46.67C243.27,105.91,232.3,123.76,227.33,152.58z M256,108.11
			c11.41,0,21.5,16.68,26.33,43.59c-8.63,0.59-17.41,1.02-26.33,1.02s-17.7-0.29-26.33-1.02C234.5,124.78,244.59,108.11,256,108.11z
			"/>
		<path id="XMLID_6_" class="st0" d="M276.48,75.04c15.51,13.02,27.5,40.08,32.91,74.46l0.15,1.17l1.02-0.15
			c31.74-5.56,53.98-15.95,60.85-28.38c2.49-4.39,2.93-8.92,1.46-13.6c-6.14-17.99-44.62-32.33-95.82-35.55l-3.36-0.15L276.48,75.04
			z M280.14,75.48c47.98,3.51,85.14,17.26,90.84,33.79c0.44,1.46,0.73,2.93,0.73,4.39c0,2.49-0.73,4.83-2.05,7.17
			c-6.44,11.56-28.23,21.5-58.37,27.06C306.03,115.42,294.77,89.38,280.14,75.48z"/>
		<path id="XMLID_7_" class="st0" d="M104.74,123.9c-23.26,20.19-35.55,44.18-35.55,69.34c0,59.54,70.36,110.01,163.69,117.32
			l3.36,0.29l-2.49-2.19c-21.21-18.87-34.38-63.49-34.38-116.15l0.15-10.24l-0.88-0.15c-51.49-9.65-86.75-31.6-92.01-57.34
			l-0.44-1.9L104.74,123.9z M71.53,193.24c0-23.99,11.56-46.96,33.5-66.41c6.73,25.75,41.69,47.54,92.45,57.2
			c0,1.61-0.15,8.48-0.15,8.48c0,51.35,12.58,95.09,32.77,115.57C139.41,299.89,71.53,251.03,71.53,193.24z"/>
		<path id="XMLID_8_" class="st0" d="M224.55,186.81v1.32c0,46.23,13.9,82.36,31.45,82.36c17.7,0,31.45-36.13,31.45-82.36v-2.49
			l-1.17,0.15c-9.95,0.88-20.04,1.32-30.28,1.32c-10.24,0-20.48-0.44-30.28-1.32l-1.17-0.15L224.55,186.81z M226.74,187.98
			L226.74,187.98c9.51,0.73,19.46,1.17,29.26,1.17c9.95,0,19.75-0.44,29.26-1.32v0.15c0,44.91-12.87,80.16-29.26,80.16
			C239.62,268.14,226.74,233.03,226.74,187.98z"/>
		<path id="XMLID_9_" class="st0" d="M405.5,124.49c-5.27,25.75-40.67,47.84-92.01,57.34l-0.88,0.15l0.15,10.24
			c0,52.81-13.17,97.28-34.38,116.15l-2.49,2.19l3.36-0.29c93.33-7.31,163.69-57.64,163.69-117.32c0-25.16-12.29-49.15-35.55-69.34
			l-1.32-1.17L405.5,124.49z M407.11,126.83c21.8,19.6,33.5,42.42,33.5,66.41c0,57.78-68.02,106.64-158.57,114.69
			c20.33-20.48,32.77-64.22,32.77-115.57c0,0-0.15-6.88-0.15-8.48C365.28,174.23,400.38,152.58,407.11,126.83z"/>
		
			<linearGradient id="SVGID_1_" gradientUnits="userSpaceOnUse" x1="256" y1="209.6458" x2="256" y2="373.3826" gradientTransform="matrix(1 0 0 -1 0 514)">
			<stop  offset="0" style="stop-color:#D0D2D3"/>
			<stop  offset="0.1575" style="stop-color:#F1F1F2"/>
			<stop  offset="0.1639" style="stop-color:#F0F0F1"/>
			<stop  offset="0.2592" style="stop-color:#E8E9EA"/>
			<stop  offset="0.44" style="stop-color:#E6E7E8"/>
			<stop  offset="0.5594" style="stop-color:#CFD0D1"/>
			<stop  offset="0.8087" style="stop-color:#949597"/>
			<stop  offset="1" style="stop-color:#626366"/>
		</linearGradient>
		<path class="st1" d="M405.5,105.33c0.29,0.88,0.59,1.9,0.88,2.78c1.32,5.41,1.02,10.68-0.59,15.95
			c22.53,19.31,35.84,43.3,35.84,69.19c0,64.66-83.09,117.03-185.64,117.03S70.36,257.9,70.36,193.24
			c0-25.89,13.31-49.74,35.84-69.19c-1.76-5.12-1.9-10.53-0.59-15.95c0.29-1.02,0.59-1.9,1.02-2.93
			C75.92,128,57.2,157.99,57.2,190.76c0,71.53,88.94,129.61,198.8,129.61c109.71,0,198.8-58.08,198.8-129.61
			C454.8,157.99,436.22,128.15,405.5,105.33z"/>
		
			<linearGradient id="XMLID_00000172435999783092553130000011949938878490698426_" gradientUnits="userSpaceOnUse" x1="284.9041" y1="351.5869" x2="230.5423" y2="397.2018" gradientTransform="matrix(1 0 0 -1 0 514)">
			<stop  offset="0" style="stop-color:#E6E7E8"/>
			<stop  offset="0.44" style="stop-color:#E6E7E8"/>
			<stop  offset="0.5594" style="stop-color:#CFD0D1"/>
			<stop  offset="0.8087" style="stop-color:#949597"/>
			<stop  offset="1" style="stop-color:#626366"/>
		</linearGradient>
		<path id="XMLID_31_" style="fill:url(#XMLID_00000172435999783092553130000011949938878490698426_);" d="M228.35,152.72
			l-5.71,4.39c4.68-37.16,17.85-60.85,33.35-60.85c15.51,0,28.67,23.7,33.35,60.85l-5.71-4.39l0,0
			c-4.83-28.09-15.36-45.79-27.65-45.79C243.71,106.93,233.18,124.64,228.35,152.72L228.35,152.72z"/>
		
			<linearGradient id="XMLID_00000023270482348787165960000003621670766243709349_" gradientUnits="userSpaceOnUse" x1="290.0901" y1="274.1378" x2="211.3935" y2="319.5733" gradientTransform="matrix(1 0 0 -1 0 514)">
			<stop  offset="0" style="stop-color:#E6E7E8"/>
			<stop  offset="0.44" style="stop-color:#E6E7E8"/>
			<stop  offset="0.5594" style="stop-color:#CFD0D1"/>
			<stop  offset="0.8087" style="stop-color:#949597"/>
			<stop  offset="1" style="stop-color:#626366"/>
		</linearGradient>
		<path id="XMLID_30_" style="fill:url(#XMLID_00000023270482348787165960000003621670766243709349_);" d="M291.11,178.03
			l-4.68,8.78l0,0c0,0.44,0,0.88,0,1.32c0,46.23-13.6,81.33-30.43,81.33s-30.43-34.96-30.43-81.33c0-0.44,0-1.02,0-1.46l-4.68-8.48
			c-0.15,3.22-0.15,6.58-0.15,10.09c0,52.37,15.8,92.01,35.25,92.01s35.25-39.64,35.25-92.01
			C291.25,184.61,291.11,181.25,291.11,178.03z"/>
		
			<linearGradient id="SVGID_00000167384526719097354550000012424177985749354121_" gradientUnits="userSpaceOnUse" x1="256" y1="334.4163" x2="256" y2="423.1395" gradientTransform="matrix(1 0 0 -1 0 514)">
			<stop  offset="0" style="stop-color:#E6E7E8"/>
			<stop  offset="0.44" style="stop-color:#E6E7E8"/>
			<stop  offset="0.5594" style="stop-color:#CFD0D1"/>
			<stop  offset="0.8087" style="stop-color:#949597"/>
			<stop  offset="1" style="stop-color:#626366"/>
		</linearGradient>
		<path style="fill:url(#SVGID_00000167384526719097354550000012424177985749354121_);" d="M283.65,152.72
			c-8.78,0.73-17.99,1.02-27.65,1.02c-9.65,0-18.87-0.44-27.65-1.02l0,0l-5.71,4.39c10.53,1.02,21.65,1.46,33.35,1.46
			c11.7,0,22.82-0.59,33.35-1.46L283.65,152.72L283.65,152.72z M385.17,107.37C378.15,83.38,320.66,65.68,256,65.68
			s-122.15,17.7-129.17,41.69c-6,20.77,27.06,40.08,79.14,47.84l-4.53-5.71l0,0c-42.13-7.46-67.29-23.41-61.44-40.37
			c7.02-20.63,57.93-35.55,116-35.55s108.98,14.92,116,35.55c5.85,16.97-19.31,32.91-61.44,40.37l0,0l-4.53,5.71
			C358.11,147.46,391.17,128.15,385.17,107.37z"/>
		<path id="XMLID_27_" class="st5" d="M405.8,124.05c8.63,7.46,15.95,15.51,21.65,24.14c-2.05-14.04-7.31-26.77-15.21-37.6
			c-2.19-1.76-4.39-3.51-6.58-5.12c0.29,0.88,0.59,1.9,0.88,2.78C407.7,113.52,407.41,118.93,405.8,124.05z"/>
		<path id="XMLID_26_" class="st5" d="M106.2,124.05c-1.76-5.12-1.9-10.53-0.59-15.95c0.29-1.02,0.59-1.9,1.02-2.93
			c-2.34,1.76-4.68,3.51-6.88,5.41c-7.75,10.83-13.17,23.7-15.21,37.6C90.4,139.56,97.57,131.51,106.2,124.05z"/>
		
			<linearGradient id="SVGID_00000112616461471343981190000014746803332796415407_" gradientUnits="userSpaceOnUse" x1="256" y1="466.6034" x2="256" y2="179.298" gradientTransform="matrix(1 0 0 -1 0 514)">
			<stop  offset="0" style="stop-color:#C5C7C9"/>
			<stop  offset="0.0476" style="stop-color:#D4D5D7"/>
			<stop  offset="0.12" style="stop-color:#E6E7E8"/>
			<stop  offset="0.1242" style="stop-color:#E8E9EA"/>
			<stop  offset="0.1469" style="stop-color:#EFEFF0"/>
			<stop  offset="0.21" style="stop-color:#F1F1F2"/>
			<stop  offset="0.545" style="stop-color:#F1F1F2"/>
			<stop  offset="0.6115" style="stop-color:#CCCCCE"/>
			<stop  offset="0.692" style="stop-color:#A6A7A9"/>
			<stop  offset="0.7722" style="stop-color:#88898B"/>
			<stop  offset="0.851" style="stop-color:#737477"/>
			<stop  offset="0.9278" style="stop-color:#66676A"/>
			<stop  offset="1" style="stop-color:#626366"/>
		</linearGradient>
		<path style="fill:url(#SVGID_00000112616461471343981190000014746803332796415407_);" d="M33.35,191.05
			C33.35,111.62,132.97,47.4,256,47.4c122.88,0,222.65,64.37,222.65,143.65c0,79.43-99.62,143.65-222.65,143.65
			C133.12,334.85,33.35,270.48,33.35,191.05z M256,320.37c109.71,0,198.8-58.08,198.8-129.61S365.86,61.15,256,61.15
			S57.2,119.22,57.2,190.76C57.2,262.29,146.14,320.37,256,320.37z"/>
		<path id="XMLID_10_" class="st7" d="M55.88,190.76c0,72.27,89.82,130.93,200.12,130.93s200.12-58.81,200.12-130.93
			S366.3,59.83,256,59.83C145.7,59.83,55.88,118.49,55.88,190.76z M58.51,190.76c0-70.66,88.65-128.29,197.49-128.29
			s197.49,57.49,197.49,128.29c0,70.66-88.65,128.29-197.49,128.29C147.16,319.05,58.51,261.41,58.51,190.76z"/>
		
			<linearGradient id="SVGID_00000141420249367059364290000000686564907983788467_" gradientUnits="userSpaceOnUse" x1="256" y1="466.6055" x2="256" y2="179.2083" gradientTransform="matrix(1 0 0 -1 0 514)">
			<stop  offset="0" style="stop-color:#C5C7C9"/>
			<stop  offset="0.0476" style="stop-color:#D4D5D7"/>
			<stop  offset="0.12" style="stop-color:#E6E7E8"/>
			<stop  offset="0.1242" style="stop-color:#E8E9EA"/>
			<stop  offset="0.1469" style="stop-color:#EFEFF0"/>
			<stop  offset="0.21" style="stop-color:#F1F1F2"/>
			<stop  offset="0.545" style="stop-color:#F1F1F2"/>
			<stop  offset="0.6115" style="stop-color:#CCCCCE"/>
			<stop  offset="0.692" style="stop-color:#A6A7A9"/>
			<stop  offset="0.7722" style="stop-color:#88898B"/>
			<stop  offset="0.851" style="stop-color:#737477"/>
			<stop  offset="0.9278" style="stop-color:#66676A"/>
			<stop  offset="1" style="stop-color:#626366"/>
		</linearGradient>
		<path style="fill:url(#SVGID_00000141420249367059364290000000686564907983788467_);" d="M203.78,192.37
			c0-69.19,23.41-126.68,52.22-126.68s52.22,57.49,52.22,126.68c0,69.92-23.41,126.68-52.22,126.68
			C227.18,319.05,203.78,262.29,203.78,192.37z M256,280.14c19.46,0,35.25-39.64,35.25-92.01c0-54.42-15.8-91.87-35.25-91.87
			s-35.25,37.45-35.25,91.87C220.75,240.35,236.54,280.14,256,280.14z"/>
		
			<linearGradient id="SVGID_00000037670835897459931660000014240685471965260679_" gradientUnits="userSpaceOnUse" x1="256" y1="466.5859" x2="256" y2="179.1802" gradientTransform="matrix(1 0 0 -1 0 514)">
			<stop  offset="0" style="stop-color:#C5C7C9"/>
			<stop  offset="0.0476" style="stop-color:#D4D5D7"/>
			<stop  offset="0.12" style="stop-color:#E6E7E8"/>
			<stop  offset="0.1242" style="stop-color:#E8E9EA"/>
			<stop  offset="0.1469" style="stop-color:#EFEFF0"/>
			<stop  offset="0.21" style="stop-color:#F1F1F2"/>
			<stop  offset="0.545" style="stop-color:#F1F1F2"/>
			<stop  offset="0.6115" style="stop-color:#CCCCCE"/>
			<stop  offset="0.692" style="stop-color:#A6A7A9"/>
			<stop  offset="0.7722" style="stop-color:#88898B"/>
			<stop  offset="0.851" style="stop-color:#737477"/>
			<stop  offset="0.9278" style="stop-color:#66676A"/>
			<stop  offset="1" style="stop-color:#626366"/>
		</linearGradient>
		<path style="fill:url(#SVGID_00000037670835897459931660000014240685471965260679_);" d="M105.62,108.25
			c5.71-23.7,75.19-58.08,150.38-58.08c75.34,0,142.34,24.58,150.38,58.08c9.07,37.6-57.78,71.53-150.38,71.53
			C163.4,179.64,96.55,145.7,105.62,108.25z M256,65.68c-64.66,0-122.15,17.7-129.17,41.69c-7.75,26.92,49.59,51.2,129.17,51.2
			s136.92-24.28,129.17-51.2C378.15,83.38,320.66,65.68,256,65.68z"/>
		
			<linearGradient id="SVGID_00000051366740901515346990000004927999585591153574_" gradientUnits="userSpaceOnUse" x1="255.9999" y1="407.0009" x2="255.9999" y2="325.0863" gradientTransform="matrix(1 0 0 -1 0 514)">
			<stop  offset="5.618000e-03" style="stop-color:#E6E7E8"/>
			<stop  offset="1" style="stop-color:#6D6E70"/>
		</linearGradient>
		<path style="fill:url(#SVGID_00000051366740901515346990000004927999585591153574_);" d="M220.89,178.03L220.89,178.03l4.83,8.78
			c9.65,0.88,19.89,1.32,30.28,1.32c10.53,0,20.63-0.44,30.43-1.32l4.68-8.78l0,0c-11.12,1.17-22.97,1.76-35.11,1.76
			C243.86,179.64,232.01,179.05,220.89,178.03z M407.26,116.3c-1.17,26.92-40.81,50.61-99.33,59.54l0,0l5.71,7.17
			C370.83,172.32,408.58,145.99,407.26,116.3z M104.74,116.3c-1.32,29.7,36.28,56.03,93.62,66.71l5.71-7.17l0,0
			C145.55,166.91,106.06,143.07,104.74,116.3z"/>
		
			<linearGradient id="XMLID_00000070084281484427382460000014535494113447071906_" gradientUnits="userSpaceOnUse" x1="283.3555" y1="466.5973" x2="283.3555" y2="325.894" gradientTransform="matrix(1 0 0 -1 0 514)">
			<stop  offset="0" style="stop-color:#E6E7E8"/>
			<stop  offset="0.44" style="stop-color:#E6E7E8"/>
			<stop  offset="0.5594" style="stop-color:#CFD0D1"/>
			<stop  offset="0.8087" style="stop-color:#949597"/>
			<stop  offset="1" style="stop-color:#626366"/>
		</linearGradient>
		<path id="XMLID_14_" style="fill:url(#XMLID_00000070084281484427382460000014535494113447071906_);" d="M306.03,155.06
			L306.03,155.06l4.53-5.71c-7.9-50.03-29.26-83.68-54.42-83.68C279.55,65.68,299.3,103.72,306.03,155.06z"/>
		
			<linearGradient id="XMLID_00000138543903748946140470000009445950963070963616_" gradientUnits="userSpaceOnUse" x1="228.7177" y1="466.5973" x2="228.7177" y2="325.894" gradientTransform="matrix(1 0 0 -1 0 514)">
			<stop  offset="0" style="stop-color:#E6E7E8"/>
			<stop  offset="0.44" style="stop-color:#E6E7E8"/>
			<stop  offset="0.5594" style="stop-color:#CFD0D1"/>
			<stop  offset="0.8087" style="stop-color:#949597"/>
			<stop  offset="1" style="stop-color:#626366"/>
		</linearGradient>
		<path id="XMLID_13_" style="fill:url(#XMLID_00000138543903748946140470000009445950963070963616_);" d="M205.97,155.06
			c6.58-51.49,26.48-89.38,50.03-89.38c-25.16,0-46.67,33.65-54.56,83.68L205.97,155.06L205.97,155.06z"/>
		
			<linearGradient id="XMLID_00000160158185084512007150000000605811724094882432_" gradientUnits="userSpaceOnUse" x1="227.2549" y1="466.5979" x2="227.2549" y2="233.9069" gradientTransform="matrix(1 0 0 -1 0 514)">
			<stop  offset="0" style="stop-color:#E6E7E8"/>
			<stop  offset="0.44" style="stop-color:#E6E7E8"/>
			<stop  offset="0.5594" style="stop-color:#CFD0D1"/>
			<stop  offset="0.8087" style="stop-color:#949597"/>
			<stop  offset="1" style="stop-color:#626366"/>
		</linearGradient>
		<path id="XMLID_12_" style="fill:url(#XMLID_00000160158185084512007150000000605811724094882432_);" d="M203.78,192.37
			c0-5.56,0.15-11.12,0.44-16.53l0,0l-5.71,7.17c-0.15,3.07-0.15,6.14-0.15,9.36c0,74.02,25.31,126.68,57.78,126.68
			C227.18,319.05,203.78,262.29,203.78,192.37z"/>
		
			<linearGradient id="XMLID_00000028308174845698292470000015800771848088316288_" gradientUnits="userSpaceOnUse" x1="285.0377" y1="466.5979" x2="285.0377" y2="233.9069" gradientTransform="matrix(1 0 0 -1 0 514)">
			<stop  offset="0" style="stop-color:#E6E7E8"/>
			<stop  offset="0.44" style="stop-color:#E6E7E8"/>
			<stop  offset="0.5594" style="stop-color:#CFD0D1"/>
			<stop  offset="0.8087" style="stop-color:#949597"/>
			<stop  offset="1" style="stop-color:#626366"/>
		</linearGradient>
		<path id="XMLID_11_" style="fill:url(#XMLID_00000028308174845698292470000015800771848088316288_);" d="M313.64,183l-5.71-7.17
			l0,0c0.29,5.41,0.44,10.97,0.44,16.53c0,69.92-23.41,126.68-52.22,126.68c32.33,0,57.78-52.52,57.78-126.68
			C313.78,189.15,313.64,186.08,313.64,183z"/>
	</g>
	<g id="XMLID_48_">
		<path id="XMLID_58_" class="st15" d="M255.56,420.43c0-25.01,20.33-45.35,45.35-45.35s45.35,20.33,45.35,45.35
			s-20.33,45.35-45.35,45.35S255.56,445.44,255.56,420.43z M300.91,449.1c14.04,0,25.31-12.87,25.31-28.67
			c0-15.8-11.26-28.67-25.31-28.67c-13.9,0-25.31,12.87-25.31,28.67C275.6,436.22,287.01,449.1,300.91,449.1z"/>
		<path id="XMLID_57_" class="st15" d="M397.6,393.95v69.78h-19.02v-69.63l0,0h-26.77v-15.8h72.41v15.8L397.6,393.95L397.6,393.95
			L397.6,393.95z"/>
		<path id="XMLID_54_" class="st15" d="M447.34,444.42L447.34,444.42l-7.31,19.16h-22.24l35.25-85.43h11.85h11.85L512,463.73h-22.24
			l-7.31-19.16l0,0H464.9h-17.55V444.42z M464.9,430.08h12l0,0l-12-31.31h-0.15l-12,31.31l0,0H464.9z"/>
		<path id="XMLID_53_" class="st15" d="M45.79,393.95v69.78H26.62v-69.63l0,0H0v-15.8h72.41v15.8L45.79,393.95L45.79,393.95
			L45.79,393.95z"/>
		<path id="XMLID_50_" class="st15" d="M77.24,420.43c0-25.01,20.33-45.35,45.35-45.35s45.35,20.33,45.35,45.35
			s-20.33,45.35-45.35,45.35S77.24,445.44,77.24,420.43z M122.59,449.1c13.9,0,25.31-12.87,25.31-28.67
			c0-15.8-11.26-28.67-25.31-28.67s-25.31,12.87-25.31,28.67S108.54,449.1,122.59,449.1z"/>
		<path id="XMLID_49_" class="st15" d="M211.68,463.73h9.65v-32.04v-0.44l33.35-52.96h-22.24l-20.63,35.84l-20.63-35.84h-22.24
			l33.35,52.96v0.44v32.04H211.68L211.68,463.73z"/>
	</g>
</g>
</svg>
