<?xml version="1.0" encoding="utf-8"?>
<!-- Generator: Adobe Illustrator 24.3.0, SVG Export Plug-In . SVG Version: 6.00 Build 0)  -->
<svg version="1.1" id="Layer_1" xmlns="http://www.w3.org/2000/svg" xmlns:xlink="http://www.w3.org/1999/xlink" x="0px" y="0px"
	 viewBox="0 0 512 512" style="enable-background:new 0 0 512 512;" xml:space="preserve">
<style type="text/css">
	.st0{fill:#FF0000;}
	.st1{fill:#FFFFFF;}
</style>
<g id="XMLID_21_">
	<path id="XMLID_23_" class="st0" d="M297.93,279.8L297.93,279.8h0.14h0.14l0,0h0.14h0.14h0.14l0,0h0.14l0,0h0.14l0,0h0.14l0,0l0,0
		h0.14l0,0l0,0l0,0l0,0l0,0v-0.14v-0.14v-0.14v-0.14v-0.14v-0.14v-0.14v-0.14v-0.14v-0.14v-0.28v-45.53c0-0.97-0.69-1.66-1.52-1.66
		h-8.16c-0.83,0-1.52,0.69-1.52,1.66v45.53c0,0.97,0.69,1.66,1.52,1.66H297.93z"/>
	<path id="XMLID_27_" class="st0" d="M350.1,230.95h-7.75c-0.83,0-1.52,0.69-1.52,1.66v18.96h-16.47v-18.96
		c0-0.97-0.69-1.66-1.38-1.66h-7.89c-0.83,0-1.52,0.69-1.52,1.66v45.53c0,0.97,0.69,1.66,1.52,1.66h7.89c0.83,0,1.38-0.69,1.38-1.66
		v-21.31h16.47v21.31c0,0.97,0.69,1.66,1.52,1.66h7.75c0.83,0,1.52-0.69,1.52-1.66v-45.53C351.62,231.78,350.93,230.95,350.1,230.95
		z"/>
	<path id="XMLID_30_" class="st0" d="M192.35,230.95c-0.83,0-1.38,0.69-1.38,1.66v45.53c0,0.97,0.69,1.66,1.38,1.66h19.23
		c11.35,0,20.2-6.92,20.2-24.49c0-17.3-8.72-24.35-20.06-24.35L192.35,230.95L192.35,230.95z M201.62,236.35h7.2
		c8.86,0,11.62,5.81,11.62,19.1c0,13.42-2.63,19.23-11.62,19.23h-7.2V236.35z"/>
	<path id="XMLID_33_" class="st0" d="M254.06,230.95c-0.42,0-0.97,0.42-1.11,0.97l-15.91,47.05c-0.14,0.55,0.14,0.83,0.55,0.83h4.7
		c0.42,0,0.97-0.28,1.11-0.83l3.87-12.04h17.16l3.6,11.21c0.28,0.97,1.25,1.66,2.08,1.66h8.72c0.83,0,1.25-0.69,0.97-1.52
		l-15.91-45.53c-0.28-0.97-1.11-1.66-1.94-1.66h-7.89V230.95z M256,240.78l6.78,21.03h-13.7L256,240.78z"/>
	<path id="XMLID_36_" class="st0" d="M375.7,230.95c-0.42,0-0.97,0.42-1.11,0.83l-15.78,47.19c-0.14,0.55,0,0.83,0.42,0.83h4.84
		c0.42,0,0.97-0.28,1.11-0.83l3.87-12.04h17.16l3.6,11.21c0.28,0.97,1.25,1.66,2.08,1.66h8.58c0.83,0,1.25-0.69,0.97-1.66
		l-15.78-45.53c-0.28-0.97-1.25-1.66-2.08-1.66L375.7,230.95L375.7,230.95z M377.63,240.78l6.78,21.03h-13.56L377.63,240.78z"/>
	<path id="XMLID_38_" class="st0" d="M435.34,231.09h-36.53c-0.42,0-0.83,0.42-0.83,0.83v3.46c0,0.55,0.28,0.97,0.83,0.97h13.01
		v41.79c0,0.97,0.69,1.66,1.52,1.66h7.89c0.83,0,1.52-0.69,1.52-1.66v-41.79h12.59c0.55,0,0.97-0.42,0.97-0.97v-3.46
		C436.17,231.37,435.75,231.09,435.34,231.09z"/>
	<path id="XMLID_39_" class="st0" d="M505.63,263.75v-31.83c0-0.55,0.42-0.83,0.83-0.83h4.7c0.42,0,0.83,0.42,0.83,0.83v30.3
		c0,2.77,0,3.74-0.14,5.4c-0.55,9.69-6.78,12.73-16.74,12.73c-11.76,0-17.3-6.64-18.4-12.73c-0.42-2.35-0.55-4.7-0.42-6.78v-28.09
		c0-0.97,0.69-1.66,1.52-1.66h7.75c0.83,0,1.52,0.69,1.52,1.66v31.69c0,1.25,0,2.63,0.28,4.01c0.55,2.63,2.21,7.06,9.27,7.06
		c6.09,0,9.13-3.6,9.13-8.03C505.63,266.1,505.63,264.44,505.63,263.75z"/>
	<path id="XMLID_40_" class="st0" d="M464.54,238.56L464.54,238.56L464.54,238.56L464.54,238.56L464.54,238.56h0.14l0,0l0,0l0,0l0,0
		l0,0l0,0l0,0l0,0l0,0l0,0l0,0l0,0l0,0l0,0l0,0l0,0l0,0l0,0l0,0l0,0l0,0l0,0l0,0l0,0l0,0l0,0v-4.15c0-0.55-0.28-0.83-0.69-0.97
		c0,0-0.97-0.55-3.46-1.25c-1.94-0.55-4.7-0.97-7.75-0.97c-7.2,0-10.52,2.35-12.59,5.12c-2.08,2.77-2.77,6.09-2.08,9.82
		c1.11,6.23,6.09,10.1,11.21,13.84c3.87,2.91,7.75,5.26,8.99,8.99c0.55,1.52,0.28,4.01-0.97,5.26c-1.38,1.38-3.04,1.8-5.67,1.8
		c-3.04,0-6.78-0.69-10.79-2.49c-0.69-0.42-1.52-0.83-1.52-0.83c-0.42-0.14-0.69,0-0.69,0.55v4.43c0,0.55,0.28,0.83,0.83,1.11
		c0,0,0.55,0.28,1.11,0.42c3.32,1.11,7.06,1.66,11.35,1.66c7.06,0,10.93-2.49,12.87-4.84c2.21-2.63,3.46-6.37,2.63-10.93
		c-1.38-7.2-7.47-11.21-12.32-14.53c-3.6-2.63-7.33-5.12-8.3-8.03c-0.69-2.21,0.28-3.74,0.83-4.43c0.97-1.25,3.04-2.21,5.95-2.21
		c2.49,0,4.98,0.42,7.75,1.8C462.18,237.32,463.43,237.87,464.54,238.56z"/>
	<rect id="XMLID_44_" y="209.5" class="st0" width="158.17" height="92.99"/>
	<path id="XMLID_45_" class="st1" d="M47.74,236.9h2.91h2.91l6.09,0.14l6.23,0.14l6.37,0.28l6.5,0.28l6.5,0.42l6.5,0.55l6.37,0.55
		l6.23,0.69l6.09,0.83l3.04,0.42l2.91,0.55l2.91,0.42l2.77,0.55l2.63,0.55l2.63,0.55l2.49,0.55l2.35,0.69l2.35,0.69l2.21,0.69
		l2.08,0.69l1.94,0.69c1.94,0.69,3.32,1.38,3.32,2.77c0,1.94-4.15,3.18-7.89,4.43c-14.94,4.7-41.65,10.1-80.67,12.87l-36.26-36.26
		c-3.46,0.14-6.5,0.14-8.58,0.42l37.5,37.36l-10.1,14.81c60.47-9.55,87.87-19.1,100.05-24.77c2.63-1.25,10.1-4.57,10.1-8.99
		c0-2.63-2.49-4.29-5.81-5.67c-12.45-5.4-33.49-8.86-54.11-10.66c-21.45-2.08-50.09-2.63-65.87-2.49l33.76,33.63
		c6.64-0.55,12.87-0.97,18.82-1.66L47.74,236.9z"/>
</g>
</svg>
